<?xml version="1.0" encoding="UTF-8"?>
<svg id="Layer_1" data-name="Layer 1" xmlns="http://www.w3.org/2000/svg" viewBox="0 0 187.49 187.49">
  <defs>
    <style>
      .cls-1 {
        fill: #231f20;
        stroke-width: 0px;
      }

      .cls-2 {
        fill: none;
        stroke: #231f20;
        stroke-miterlimit: 10;
        stroke-width: 9px;
      }
    </style>
  </defs>
  <circle class="cls-2" cx="93.74" cy="93.74" r="89.24"/>
  <path class="cls-1" d="m51.64,135c.09-25.87.17-51.74.26-77.62l-11.18,3.03c15.95,25.43,31.9,50.86,47.85,76.28,3.11,4.96,11.18,3.06,11.18-3.03v-61.48c0-7.72-12-7.73-12,0v61.48l11.18-3.03c-15.95-25.43-31.9-50.86-47.85-76.28-3.12-4.98-11.16-3.05-11.18,3.03-.09,25.87-.17,51.74-.26,77.62-.03,7.72,11.97,7.73,12,0h0Z"/>
  <path class="cls-1" d="m109.06,93.48c-5.41-2.29-38.97-20.81-24.29-28.56,3.04-1.6,7.71-.62,11.01-.62,5.19-.01,10.37-.02,15.56-.04,10.37-.02,20.74-.05,31.11-.07l-5.18-9.03c-11.1,25.64-22.2,51.28-33.3,76.92-1.74,4.03.22,9.03,5.18,9.03h61.85c7.72,0,7.73-12,0-12h-61.85l5.18,9.03c11.1-25.64,22.2-51.28,33.3-76.92,1.74-4.02-.22-9.04-5.18-9.03-13.61.03-27.22.06-40.84.09-10.56.02-22.95-2-29.43,8.5-11.92,19.3,16.25,36.89,30.81,43.06,3.01,1.27,6.39.88,8.21-2.15,1.5-2.5.83-6.95-2.15-8.21h0Z"/>
  <path class="cls-2" d="m116.7,135.11c1.35-.48,9.3-3.43,12.09-11.26.62-1.73,2.21-6.21,0-10.72-1.33-2.7-3.44-4.23-4.6-4.94-.9-.53-1.8-1.05-2.7-1.58"/>
</svg>